[IMG]http://x264-bb.com/screenz/images/j8yo872p3e6jktc4c1r.jpg[/IMG]

[IMG]http://pic.phyrefile.com/m/ma/masta/2010/10/23/u0jfp.jpg.png[/IMG]
General
Complete name                    : Face Off(1997)DVDrip{Dual audio}[Eng Hindi]Current_HD
Format                           : AVI
Format/Info                      : Audio Video Interleave
Format profile                   : OpenDML
File size                        : 912 MiB
Duration                         : 2h 13mn
Overall bit rate                 : 957 Kbps
Writing application              : AVI-Mux GUI 1.17.8.3, Feb 16 201019:42:50

[IMG]http://img518.imageshack.us/img518/241/windowsmediaplayerfile.png[/IMG]
Video
ID                               : 0
Format                           : MPEG-4 Visual
Format profile                   : Advanced Simple@L5
Format settings, BVOP            : Yes
Format settings, QPel            : No
Format settings, GMC             : No warppoints
Format settings, Matrix          : Default (H.263)
Codec ID                         : DX50
Codec ID/Hint                    : DivX 5
Duration                         : 2h 13mn
Bit rate                         : 733 Kbps
Width                            : 672 pixels
Height                           : 280 pixels
Display aspect ratio             : 2.40:1
Frame rate                       : 25.000 fps
Color space                      : YUV
Chroma subsampling               : 4:2:0
Bit depth                        : 8 bits
Scan type                        : Progressive
Bits/(Pixel*Frame)               : 0.156
Stream size                      : 699 MiB (77%)
Writing library                  : XviD 1.1.0 (UTC 2005-11-22)

[IMG]http://img33.imageshack.us/img33/9892/musicfile.png[/IMG]
Audio #1
ID                               : 1
Format                           : MPEG Audio
Format version                   : Version 1
Format profile                   : Layer 3
Mode                             : Joint stereo
Codec ID                         : 55
Codec ID/Hint                    : MP3
Duration                         : 2h 13mn
Bit rate mode                    : Constant
Bit rate                         : 96.0 Kbps
Channel(s)                       : 2 channels
Sampling rate                    : 48.0 KHz
Stream size                      : 91.5 MiB (10%)
Alignment                        : Aligned on interleaves
Interleave, duration             : 859 ms (21.47 video frames)
Interleave, preload duration     : 216 ms
Writing library                  : LAME3.97 (beta)

[IMG]http://img33.imageshack.us/img33/9892/musicfile.png[/IMG]
Audio #2
ID                               : 2
Format                           : MPEG Audio
Format version                   : Version 1
Format profile                   : Layer 3
Mode                             : Joint stereo
Mode extension                   : MS Stereo
Codec ID                         : 55
Codec ID/Hint                    : MP3
Duration                         : 2h 8mn
Bit rate mode                    : Constant
Bit rate                         : 128 Kbps
Channel(s)                       : 2 channels
Sampling rate                    : 48.0 KHz
Stream size                      : 118 MiB (13%)
Alignment                        : Aligned on interleaves
Interleave, duration             : 881 ms (22.02 video frames)
Interleave, preload duration     : 216 ms
Title                            : CurrentHD
Writing library                  : LAME3.97


[IMG]http://pic.phyrefile.com/m/ma/masta/2010/10/23/2myzspj.jpg.png[/IMG]
[IMG]http://img573.imageshack.us/img573/5359/71758495.jpg[/IMG]
[IMG]http://img684.imageshack.us/img684/7786/59955886.jpg[/IMG]
[MG]http://img703.imageshack.us/img703/7027/29096847.jpg[/IMG]
[IMG]http://img710.imageshack.us/img710/2849/76431203.jpg[/IMG]
[IMG]http://img510.imageshack.us/img510/5357/87482305.jpg[/IMG]
